<svg width="36" height="36" xmlns="http://www.w3.org/2000/svg" xmlns:xlink="http://www.w3.org/1999/xlink"><defs><path d="M7.96 23.07h1.564v1.599c0 .511.207 1.002.574 1.364a1.97 1.97 0 001.385.565h6.612c.337 0 .612-.27.612-.603a.608.608 0 00-.612-.603h-6.612a.73.73 0 01-.735-.723V23.07h5.816c.338 0 .613-.27.613-.602a.608.608 0 00-.613-.603H7.96a.73.73 0 01-.735-.724v-9.404h16.378v1.488c0 .333.274.603.612.603.338 0 .612-.27.612-.603V9.43a1.91 1.91 0 00-.574-1.364 1.975 1.975 0 00-1.385-.565H7.959C6.877 7.5 6 8.364 6 9.43v11.71c0 .512.207 1.002.574 1.364.367.362.866.565 1.385.565zm0-14.355h14.937a.73.73 0 01.734.724v1.119H7.224V9.429a.73.73 0 01.735-.714zm3.183 10.497c.337 0 .612.27.612.603a.608.608 0 01-.612.603H9.147a.608.608 0 01-.612-.603c0-.333.274-.603.612-.603h1.996zm2.84 0h1.988c.339 0 .613.27.613.603a.608.608 0 01-.613.603h.001-1.988a.608.608 0 01-.613-.603c0-.333.274-.603.613-.603zm-.918-3.022a1.355 1.355 0 01-1.359 1.334h-1.81a1.353 1.353 0 01-1.36-1.343v-1.416c0-.74.608-1.34 1.36-1.34h1.807c.363 0 .71.143.966.396.256.254.398.598.396.955v1.414zm-1.224 0l.002-1.414a.136.136 0 00-.137-.136h-1.81a.136.136 0 00-.137.136v1.414c0 .075.062.136.137.136h1.807a.137.137 0 00.138-.136zm18.13 1.334c0 .33.005.67.015 1.018.064 3.363.155 7.971-5.568 9.925a.624.624 0 01-.402 0h-.001c-5.722-1.954-5.634-6.55-5.568-9.925.012-.35.012-.69.012-1.018 0-.332.275-.603.612-.603 1.999 0 3.454-.545 4.717-1.75a.619.619 0 01.855 0c1.263 1.21 2.718 1.75 4.716 1.75.163 0 .318.063.433.176a.6.6 0 01.18.427zm-5.757 9.737c4.682-1.7 4.609-5.413 4.526-8.68v-.454a7.414 7.414 0 01-4.536-1.688 7.413 7.413 0 01-4.535 1.688v.453c-.064 3.27-.134 6.98 4.545 8.681zm1.293-7.084a.62.62 0 01.84.02c.231.227.243.59.027.828l-2.349 2.313a.614.614 0 01-.433.177.614.614 0 01-.433-.177l-1.105-1.087a.598.598 0 010-.854.621.621 0 01.868 0l.67.66 1.915-1.88z" id="a"/></defs><g fill="none" fill-rule="evenodd"><mask id="b" fill="#fff"><use xlink:href="#a"/></mask><use fill="#1A58AA" fill-rule="nonzero" xlink:href="#a"/><g mask="url(#b)" fill="#1A1A1A"><rect width="36" height="36" rx="2"/></g></g></svg>