<svg width="83" height="56" xmlns="http://www.w3.org/2000/svg"><g fill="none"><path d="M36.065 4.779h2.09v2.12h-2.09zm0 4.318h2.09v2.12h-2.09zm0 6.44h2.09v2.12h-2.09zm-2.09-4.319v4.319h2.09v-4.319zm0-4.318h2.09v2.12h-2.09zm0-6.44h2.09v2.12h-2.09zm-2.09 4.319h2.09v2.12h-2.09zm2.09 12.879h-2.09v2.197h2.09v2.122h2.09v-4.319zm2.09 6.44h2.09v2.12h-2.09zm0 10.759h2.09v2.12h-2.09zm0 4.318h4.255v2.12h-4.255zm-2.09 15.002h2.09v2.12h-2.09zm-2.09-2.122h2.09v2.12h-2.09zm-6.345 0h2.09v2.12h-2.09zm2.09 2.122h2.09v2.12h-2.09zm-10.599-2.122h2.09v2.12h-2.09zm2.164-6.44h2.09v2.12h-2.09zm4.181-2.197h2.09v2.12h-2.09zm2.164-8.561h2.09v2.12h-2.09zm-4.254-2.122h2.09v2.12h-2.09zm8.434-4.318h2.09v2.12h-2.09zm-2.09-2.121h2.09v2.12h-2.09zm-8.435-2.198h2.09v2.12h-2.09zm4.181-4.242h2.09v2.12h-2.09zm4.254 0h2.09v2.12h-2.09zm2.09-4.319h2.09v2.12h-2.09zm-4.18-4.318h2.09v2.12h-2.09zm2.09-6.44h2.09v2.12h-2.09zM23.376 6.9h2.09v2.12h-2.09zm-4.181-4.243h2.09v2.12h-2.09zm-8.509-4.318h2.09v2.12h-2.09zM.086 6.9h2.09v2.12H.086zm14.855 4.319h2.09v2.12h-2.09zm-8.51 6.44h2.09v2.12h-2.09zM29.72-1.661h2.09v2.12h-2.09zM10.686 28.417h2.09v2.12h-2.09zM2.251 45.615h2.09v2.12h-2.09zm33.815 4.243v-2.122h-2.09v4.319h2.09v2.121h2.164v-4.318zm-6.346-6.44h2.09v2.12h-2.09zm4.255-2.121v4.318h2.09v-4.318zm0-4.319h2.09v2.12h-2.09zm-2.09 2.197h2.09v2.12h-2.09zm4.181-10.758h-2.09v4.318h2.09v-2.197h2.164v-2.121z" fill="#52AE32"/><g fill="#164194"><path d="M45.705-1.661h2.16v2.12h-2.16zm-2.237 6.44h2.16v2.12h-2.16zm4.397 0h2.16v2.12h-2.16zm2.16 2.121h2.16v2.12h-2.16zm4.396 4.319h2.16v2.12h-2.16zm-6.556 0h2.16v2.12h-2.16zm10.953-2.122h2.16v2.12h-2.16zm8.717 0h2.16v2.12h-2.16zM54.421 4.779h2.16v2.12h-2.16zm2.16-2.122h2.16v2.12h-2.16zM43.468 13.34v4.318h2.237V13.34zm-2.16 4.319h2.16v2.12h-2.16zm-2.159 2.196v-2.197h-2.237v4.319h4.397v-2.122zm4.319 6.441h2.16v2.12h-2.16zm-2.16 2.121h2.16v2.12h-2.16zm-2.159 2.121h-2.237v4.319h4.397v-4.319zm2.159 4.319h2.16v2.12h-2.16zm2.16 2.121h2.16v2.12h-2.16zm-2.16 2.197h2.16v2.12h-2.16zm2.16 2.122h2.16v2.12h-2.16zm2.237 2.121h2.16v2.12h-2.16zm-2.237 2.197h-2.16v4.243h2.16v-2.122h2.237v-2.121z"/><path d="M39.15 49.858h2.16v2.12h-2.16zm2.158 2.197h2.16v2.12h-2.16zm-4.396 2.121v2.122h2.237v2.197h2.16v-4.319zm19.669-4.318h2.16v2.12h-2.16zm-4.319-2.121h2.16v2.12h-2.16zm2.159-4.319h2.16v2.12h-2.16zm2.16-4.243h2.16v2.12h-2.16zm4.397 6.44h2.16v2.12h-2.16zm6.557 6.44h2.16v2.12h-2.16zm13.113-2.197h2.16v2.12h-2.16zm-6.557-6.44h2.16v2.12h-2.16zm-2.16-6.44h2.16v2.12h-2.16zm-6.556-8.561h2.16v2.12h-2.16zm13.113-10.758h2.16v2.12h-2.16zM50.025 52.055h2.16v2.12h-2.16zm-4.32 2.121h-2.237v4.319h2.237v-2.197h2.16v-2.122zm-2.237-4.318h2.16v2.12h-2.16zm2.237-2.121h2.16v2.12h-2.16zm2.16-6.44h2.16v2.12h-2.16zm-10.953-4.319h4.397v2.12h-4.397zm4.397 4.319h-4.397v8.56h2.237v-6.44h2.16zm6.556-6.44h-2.16v2.121h2.16v2.197h2.16v-4.318zm6.556-2.122h2.16v2.12h-2.16zm-10.953-2.197h2.16v2.12h-2.16zm2.237-2.121h2.16v2.12h-2.16zm4.32 0h2.16v2.12h-2.16zm-8.716-6.44v2.121h-2.16v2.197h-4.397v2.122h6.557v-2.122h2.16v-4.318zm2.159-2.121h2.16v2.12h-2.16zm2.237 2.121h2.16v2.12h-2.16zm2.16-2.121h2.16v2.12h-2.16zm8.716 4.242h2.16v2.12h-2.16zm6.557-4.242h2.16v2.12h-2.16zm-15.273-4.319h2.16v2.12h-2.16zm-4.397-6.44V6.9h-6.556v2.197h2.237v2.121h-2.237v4.319h4.397V13.34h2.16v-2.122h-2.16v-2.12zm0-8.637h-2.16v-2.121h-6.556V.46h2.16v2.197h4.397V4.78h2.16V2.657h2.236V.46zM45.705 2.657h2.16v2.12h-2.16zM50.025.46h2.16v2.12h-2.16zm8.793-2.121h2.16v2.12h-2.16zm6.557 4.318h2.16v2.12h-2.16zM74.091.46h2.16v2.12h-2.16zm6.557 4.319h2.16v2.12h-2.16z"/></g></g></svg>