<svg width="36" height="36" xmlns="http://www.w3.org/2000/svg" xmlns:xlink="http://www.w3.org/1999/xlink"><defs><path d="M26.467 14.506v7.172c.086-.011.17-.017.256-.017.984 0 1.791.858 1.791 1.903 0 .547-.174 1.17-.711 1.503l-6.197 3.857a.492.492 0 01-.256.076h-7.163a.482.482 0 01-.232-.06l-3.862-2.089v.79c0 .3-.228.544-.511.544h-3.07c-.283 0-.512-.244-.512-.544v-7.61a.532.532 0 01.464-.544h3.118c.283 0 .511.244.511.544v.273h1.535V9.975a.532.532 0 01.464-.543.362.362 0 01.048 0h8.995v1.087h-8.483v9.785h1.023c1.029 0 1.775.486 2.335.909.56.422.94.722 1.247.722h4.861c.714 0 1.336.457 1.623 1.104l1.703-.918v-7.615h1.023zM10.093 21.39v-.001 4.238l4.214 2.285h6.9l6.084-3.78c.09-.056.2-.282.2-.569 0-.456-.338-.815-.768-.815a.636.636 0 00-.304.06l-2.542 1.375c-.155.881-.888 1.554-1.76 1.554h-4.604a.498.498 0 01-.367-.156.56.56 0 01-.153-.387c0-.146.055-.285.153-.388a.498.498 0 01.367-.156v.001h4.605c.434 0 .767-.354.767-.815 0-.46-.333-.815-.767-.815h-4.861c-.787 0-1.32-.525-1.839-.918-.519-.393-1.012-.713-1.743-.713h-3.582zm6.348-9.785a.532.532 0 00-.463.544v2.174c0 .3.229.543.511.544h5.117c.283-.001.512-.244.512-.544V12.15c0-.3-.229-.544-.512-.544H16.49a.362.362 0 00-.048 0zm.56 1.087h4.093v1.088h-4.093v-1.088zm-9.978 7.882H9.07v6.523H7.023v-6.523z" id="a"/></defs><g fill="none" fill-rule="evenodd"><mask id="b" fill="#fff"><use xlink:href="#a"/></mask><use fill="#1A1A1A" fill-rule="nonzero" xlink:href="#a"/><g mask="url(#b)" fill="#1A1A1A"><rect width="36" height="36" rx="2" transform="translate(0 -1)"/></g><circle fill="#69B813" cx="25.5" cy="9.5" r="3"/></g></svg>